Coordinates
version=1
nRows=29
nColumns=22
inDegrees=yes

Units are S.I. units (second, meters, Newtons, ...)
If the header above contains a line with 'inDegrees', this indicates whether rotational values are in degrees (yes) or radians (no).

endheader
time	pelvis_tilt	pelvis_list	pelvis_rotation	pelvis_tx	pelvis_ty	pelvis_tz	hip_flexion_r	hip_adduction_r	hip_rotation_r	knee_angle_r	ankle_angle_r	subtalar_angle_r	hip_flexion_l	hip_adduction_l	hip_rotation_l	knee_angle_l	ankle_angle_l	subtalar_angle_l	lumbar_extension	lumbar_bending	lumbar_rotation
      0.01000000	      0.06572846	      2.66753646	    173.02073741	      0.21169757	      0.93902056	      1.22428314	      2.20937195	      2.83151175	     -8.82206814	    -16.73907729	     13.86792650	     -0.27047558	      5.91066834	     -3.92975552	     -9.26378401	    -24.69834007	     15.91772888	     -3.07746137	     -8.49386804	      0.07127420	     -1.15091020
      0.02000000	      0.08326398	      2.67594538	    173.00905035	      0.21175282	      0.93897957	      1.22449518	      2.19471251	      2.83561964	     -8.81072552	    -16.67093684	     13.87948803	     -0.28808904	      5.92856528	     -3.92690073	     -9.27783220	    -24.69459385	     15.93800209	     -3.09263355	     -8.45580933	      0.08053366	     -1.15810207
      0.03000000	      0.12041635	      2.71550451	    172.99356080	      0.21187434	      0.93890918	      1.22472941	      2.18962151	      2.88376212	     -8.74361124	    -16.57917875	     13.87032553	     -0.34808028	      5.98278266	     -3.96182595	     -9.28762953	    -24.72126266	     15.99253494	     -3.14465054	     -8.40795248	      0.12728598	     -1.17021351
      0.04000000	      0.14583345	      2.72339328	    172.98122394	      0.21192721	      0.93886171	      1.22502813	      2.16900872	      2.88279499	     -8.74936599	    -16.48300112	     13.87293979	     -0.35840726	      6.00503055	     -3.95449404	     -9.31000197	    -24.70956121	     16.00982440	     -3.15442254	     -8.35646637	      0.13530901	     -1.16998334
      0.05000000	      0.18924650	      2.77018649	    172.97861107	      0.21201743	      0.93879543	      1.22534701	      2.14152559	      2.93849291	     -8.68664131	    -16.34230225	     13.84031949	     -0.40316217	      6.06189234	     -3.99232038	     -9.31114407	    -24.72872685	     16.05916870	     -3.19350150	     -8.29593969	      0.19183535	     -1.19222712
      0.06000000	      0.22640889	      2.80943832	    172.98764803	      0.21205577	      0.93874875	      1.22571445	      2.09878728	      2.97787342	     -8.67917542	    -16.19113500	     13.80478490	     -0.44436800	      6.10368161	     -4.01788320	     -9.31489634	    -24.73227415	     16.09917190	     -3.22720241	     -8.23582605	      0.23829643	     -1.20306529
      0.07000000	      0.25868932	      2.85299403	    173.01783263	      0.21205764	      0.93872128	      1.22613562	      2.03380240	      3.02034844	     -8.68249514	    -16.01517324	     13.76656288	     -0.47691017	      6.13645537	     -4.04296113	     -9.29972872	    -24.72607219	     16.13313438	     -3.25427711	     -8.17947696	      0.29025848	     -1.22021505
      0.08000000	      0.28429193	      2.90966432	    173.06951337	      0.21202539	      0.93871777	      1.22660400	      1.94341592	      3.07569254	     -8.70766868	    -15.81342437	     13.70787471	     -0.51067558	      6.16136014	     -4.07776664	     -9.26427009	    -24.71925005	     16.17169179	     -3.28302341	     -8.13263751	      0.35804000	     -1.24356314
      0.09000000	      0.30363885	      2.97222927	    173.14121776	      0.21196549	      0.93873601	      1.22711853	      1.83293713	      3.13528741	     -8.75185250	    -15.59232383	     13.64016539	     -0.54160601	      6.17671684	     -4.11472680	     -9.21381489	    -24.70452958	     16.21185048	     -3.31357070	     -8.09519685	      0.43178751	     -1.27017063
      0.10000000	      0.31698578	      3.03951823	    173.22946078	      0.21188290	      0.93877336	      1.22767637	      1.70544928	      3.19805407	     -8.80949279	    -15.35593454	     13.56370915	     -0.56949115	      6.18252170	     -4.15247086	     -9.15100135	    -24.68191477	     16.25423900	     -3.34879644	     -8.06726376	      0.51083661	     -1.29972179
      0.11000000	      0.32923058	      3.10523669	    173.32461212	      0.21178891	      0.93881873	      1.22826063	      1.57267845	      3.25840753	     -8.86903600	    -15.11357214	     13.48720505	     -0.59199094	      6.18183711	     -4.18570953	     -9.08451861	    -24.64741793	     16.29479635	     -3.38759549	     -8.04483943	      0.58796072	     -1.33013096
      0.12000000	      0.32976870	      3.17302537	    173.42715083	      0.21169382	      0.93888529	      1.22885808	      1.42441845	      3.31880241	     -8.94585708	    -14.86599188	     13.39697745	     -0.61510733	      6.16599473	     -4.21969315	     -9.01714345	    -24.60647590	     16.34078270	     -3.44146349	     -8.04390934	      0.66111974	     -1.35000272
      0.13000000	      0.35413091	      3.22070050	    173.51404903	      0.21157678	      0.93891493	      1.22946746	      1.30597095	      3.36092860	     -8.97220455	    -14.62431883	     13.34108226	     -0.62629081	      6.16322167	     -4.22986814	     -8.95919366	    -24.54435289	     16.36443474	     -3.47817624	     -8.00773934	      0.71997679	     -1.37796146
      0.14000000	      0.37364181	      3.27112241	    173.60444088	      0.21144764	      0.93895301	      1.23007823	      1.18021281	      3.40525180	     -9.01146013	    -14.38070602	     13.26498209	     -0.64060183	      6.15128733	     -4.24300895	     -8.90074696	    -24.47608557	     16.39120305	     -3.51815749	     -7.98410103	      0.77656526	     -1.39919222
      0.15000000	      0.39674196	      3.30867848	    173.68320707	      0.21130730	      0.93898250	      1.23068107	      1.06603158	      3.43527539	     -9.03486992	    -14.14899623	     13.20254675	     -0.65339715	      6.13573073	     -4.24192199	     -8.85077027	    -24.39554869	     16.40849765	     -3.55328652	     -7.95755165	      0.81507364	     -1.41199278
      0.16000000	      0.40453265	      3.34539357	    173.75946399	      0.21113066	      0.93903363	      1.23128694	      0.93984020	      3.45999855	     -9.07865093	    -13.92888279	     13.13393569	     -0.67196225	      6.09365871	     -4.23746129	     -8.80750587	    -24.30166932	     16.42275739	     -3.59911984	     -7.95046535	      0.84671495	     -1.41247397
      0.17000000	      0.45010751	      3.35066830	    173.81960190	      0.21093933	      0.93901482	      1.23189897	      0.87222986	      3.45383016	     -9.06867671	    -13.73831936	     13.11299886	     -0.67758183	      6.08932134	     -4.20034856	     -8.77166686	    -24.20128677	     16.42747759	     -3.61549344	     -7.89453837	      0.84666184	     -1.42128752
      0.18000000	      0.48757686	      3.35548083	    173.88767452	      0.21070968	      0.93900616	      1.23254485	      0.80116042	      3.44194489	     -9.08567412	    -13.56098863	     13.07794228	     -0.68799571	      6.06875274	     -4.15721094	     -8.72226837	    -24.08850574	     16.42992772	     -3.64043041	     -7.84993264	      0.84447989	     -1.43450294
      0.19000000	      0.52652707	      3.34914927	    173.95492141	      0.21043732	      0.93898664	      1.23323070	      0.74364519	      3.41200720	     -9.11358848	    -13.40963679	     13.05945137	     -0.69658254	      6.04443480	     -4.09842971	     -8.67747460	    -23.96903271	     16.43431200	     -3.66920292	     -7.80142684	      0.83417288	     -1.45276208
      0.20000000	      0.56448861	      3.33223324	    174.02876710	      0.21014684	      0.93895932	      1.23395426	      0.69929239	      3.36599777	     -9.15610105	    -13.28416315	     13.04994785	     -0.70563999	      6.01477463	     -4.02242545	     -8.62048753	    -23.83824739	     16.43630602	     -3.71109218	     -7.75834178	      0.81099343	     -1.48591927
      0.21000000	      0.60794544	      3.30663471	    174.10035654	      0.20981747	      0.93891386	      1.23470460	      0.67448046	      3.30583204	     -9.20844333	    -13.18673916	     13.05465383	     -0.71302653	      5.98802010	     -3.93647017	     -8.57150310	    -23.70629868	     16.44264099	     -3.75824089	     -7.70888699	      0.78336313	     -1.52658201
      0.22000000	      0.65250504	      3.27256198	    174.17304890	      0.20947118	      0.93885187	      1.23548400	      0.67096817	      3.23199239	     -9.26663253	    -13.12659893	     13.07038016	     -0.71958421	      5.96283750	     -3.83715937	     -8.51816239	    -23.57619004	     16.45092362	     -3.81515363	     -7.66437482	      0.74745713	     -1.57898613
      0.23000000	      0.69812809	      3.23323285	    174.24429653	      0.20909168	      0.93877737	      1.23626032	      0.68817268	      3.15009740	     -9.32580466	    -13.10664664	     13.10056210	     -0.72320568	      5.93761918	     -3.73343481	     -8.47184166	    -23.44753493	     16.46332135	     -3.87967417	     -7.62084070	      0.70282580	     -1.63865571
      0.24000000	      0.74330272	      3.18792515	    174.30791702	      0.20868425	      0.93868975	      1.23703952	      0.72778238	      3.05752051	     -9.38021254	    -13.13098989	     13.14692642	     -0.72187965	      5.90943717	     -3.62244512	     -8.43180029	    -23.31988595	     16.47942660	     -3.95068943	     -7.58322895	      0.65232779	     -1.70503640
      0.25000000	      0.78373302	      3.13611777	    174.36260583	      0.20824159	      0.93859431	      1.23782669	      0.78673486	      2.95275754	     -9.42478254	    -13.20338230	     13.20905542	     -0.71435965	      5.87461057	     -3.50286859	     -8.39951723	    -23.19664981	     16.49964894	     -4.02248097	     -7.55511819	      0.59653292	     -1.77376908
      0.26000000	      0.81633570	      3.07662680	    174.41177977	      0.20775987	      0.93849564	      1.23862044	      0.86381658	      2.83478946	     -9.46136166	    -13.32842547	     13.29067960	     -0.70075977	      5.82959828	     -3.37291615	     -8.37314921	    -23.07575004	     16.51941866	     -4.09551311	     -7.54012255	      0.53061343	     -1.84335140
      0.27000000	      0.83940207	      3.00430601	    174.45540325	      0.20723232	      0.93839154	      1.23943610	      0.95941392	      2.69522228	     -9.49132261	    -13.50995856	     13.39187390	     -0.68314251	      5.76969185	     -3.22565057	     -8.35065384	    -22.95209870	     16.54021132	     -4.16832074	     -7.53960546	      0.45222628	     -1.91729573
      0.28000000	      0.85363809	      2.91762834	    174.49827537	      0.20665716	      0.93827953	      1.24026965	      1.07551777	      2.53389455	     -9.51697282	    -13.75094221	     13.52391587	     -0.66095728	      5.69308143	     -3.05986865	     -8.33171501	    -22.81817169	     16.54980159	     -4.25113331	     -7.55145422	      0.35606539	     -1.99883381
      0.29000000	      0.85970322	      2.81040189	    174.53714395	      0.20603551	      0.93815559	      1.24114651	      1.21642861	      2.34042825	     -9.53660968	    -14.05602803	     13.69333364	     -0.63317027	      5.59704382	     -2.86559926	     -8.31490642	    -22.66649673	     16.54504874	     -4.35286762	     -7.57542702	      0.24278677	     -2.09524032
